<svg xmlns="http://www.w3.org/2000/svg" xmlns:xlink="http://www.w3.org/1999/xlink" version="1.1" id="Ebene_1" x="0px" y="0px" width="100px" height="100px" viewBox="0 0 100 100" enable-background="new 0 0 100 100" xml:space="preserve" >
<g>
	<path stroke="white" fill="white" fill-rule="evenodd" clip-rule="evenodd" d="M82.401,2.229L65.994,5.123l-5.609-3.964L39.228,4.753l-2.849,5.327   l-17.743,2.997c-2.699,0.453-4.509,3.013-4.057,5.713c0.468,2.694,3.023,4.509,5.717,4.046l63.766-10.844   c2.7-0.463,4.511-3.018,4.058-5.712C87.651,3.581,85.096,1.771,82.401,2.229z"/>
</g>
<path stroke="white" fill="white" fill-rule="evenodd" clip-rule="evenodd" d="M15.458,23.576l8.802,75.927H78.73l8.253-75.927H15.458z M35.248,91.431  c-1.97,0.185-3.713-1.254-3.903-3.219l-5.023-52.578c-0.186-1.964,1.254-3.712,3.218-3.902c1.969-0.19,3.712,1.254,3.903,3.223  l5.022,52.579C38.657,89.498,37.212,91.246,35.248,91.431z M51.12,91.569c-1.975,0.005-3.579-1.589-3.584-3.562l-0.154-52.82  c-0.01-1.974,1.589-3.584,3.563-3.584c1.974-0.01,3.579,1.588,3.589,3.563l0.154,52.819C54.694,89.96,53.1,91.563,51.12,91.569z   M71.512,88.141c-0.148,1.969-1.861,3.444-3.831,3.3c-1.969-0.144-3.449-1.861-3.3-3.83l3.897-52.676  c0.148-1.964,1.861-3.445,3.829-3.301c1.97,0.144,3.451,1.861,3.302,3.83L71.512,88.141z"/>
</svg>